<svg width="98" height="18" viewBox="0 0 98 18" fill="none" xmlns="http://www.w3.org/2000/svg">
<path d="M8.20801 2.44801C7.29601 2.44801 6.50401 2.63201 5.83201 3.00001C5.17601 3.36801 4.64001 3.86401 4.22401 4.48801C3.80801 5.09601 3.49601 5.79201 3.28801 6.57601C3.09601 7.36001 3.00001 8.16001 3.00001 8.97601C3.00001 9.79201 3.09601 10.592 3.28801 11.376C3.49601 12.16 3.80801 12.864 4.22401 13.488C4.64001 14.096 5.17601 14.584 5.83201 14.952C6.50401 15.32 7.29601 15.504 8.20801 15.504C9.12001 15.504 9.90401 15.32 10.56 14.952C11.232 14.584 11.776 14.096 12.192 13.488C12.608 12.864 12.912 12.16 13.104 11.376C13.312 10.592 13.416 9.79201 13.416 8.97601C13.416 8.16001 13.312 7.36001 13.104 6.57601C12.912 5.79201 12.608 5.09601 12.192 4.48801C11.776 3.86401 11.232 3.36801 10.56 3.00001C9.90401 2.63201 9.12001 2.44801 8.20801 2.44801ZM8.20801 6.19888e-06C9.48801 6.19888e-06 10.632 0.240006 11.64 0.720006C12.664 1.20001 13.528 1.84801 14.232 2.66401C14.936 3.48001 15.472 4.43201 15.84 5.52001C16.224 6.60801 16.416 7.76001 16.416 8.97601C16.416 10.208 16.224 11.368 15.84 12.456C15.472 13.544 14.936 14.496 14.232 15.312C13.528 16.128 12.664 16.776 11.64 17.256C10.632 17.72 9.48801 17.952 8.20801 17.952C6.92801 17.952 5.77601 17.72 4.75201 17.256C3.74401 16.776 2.88801 16.128 2.18401 15.312C1.48001 14.496 0.936013 13.544 0.552013 12.456C0.184013 11.368 1.27554e-05 10.208 1.27554e-05 8.97601C1.27554e-05 7.76001 0.184013 6.60801 0.552013 5.52001C0.936013 4.43201 1.48001 3.48001 2.18401 2.66401C2.88801 1.84801 3.74401 1.20001 4.75201 0.720006C5.77601 0.240006 6.92801 6.19888e-06 8.20801 6.19888e-06ZM29.4184 17.544H26.7304V15.816H26.6824C26.3464 16.44 25.8424 16.944 25.1704 17.328C24.5144 17.696 23.8424 17.88 23.1544 17.88C21.5224 17.88 20.3384 17.48 19.6024 16.68C18.8824 15.864 18.5224 14.64 18.5224 13.008V5.13601H21.2584V12.744C21.2584 13.832 21.4664 14.6 21.8824 15.048C22.2984 15.496 22.8824 15.72 23.6344 15.72C24.2104 15.72 24.6904 15.632 25.0744 15.456C25.4584 15.28 25.7704 15.048 26.0104 14.76C26.2504 14.456 26.4184 14.096 26.5144 13.68C26.6264 13.264 26.6824 12.816 26.6824 12.336V5.13601H29.4184V17.544ZM30.8156 5.13601H32.8796V1.41601H35.6156V5.13601H38.0876V7.17601H35.6156V13.8C35.6156 14.088 35.6236 14.336 35.6396 14.544C35.6716 14.752 35.7276 14.928 35.8076 15.072C35.9036 15.216 36.0396 15.328 36.2156 15.408C36.3916 15.472 36.6316 15.504 36.9356 15.504C37.1276 15.504 37.3196 15.504 37.5116 15.504C37.7036 15.488 37.8956 15.456 38.0876 15.408V17.52C37.7836 17.552 37.4876 17.584 37.1996 17.616C36.9116 17.648 36.6156 17.664 36.3116 17.664C35.5916 17.664 35.0076 17.6 34.5596 17.472C34.1276 17.328 33.7836 17.128 33.5276 16.872C33.2876 16.6 33.1196 16.264 33.0236 15.864C32.9436 15.464 32.8956 15.008 32.8796 14.496V7.17601H30.8156V5.13601ZM41.8798 13.56C41.9598 14.36 42.2638 14.92 42.7918 15.24C43.3198 15.56 43.9518 15.72 44.6878 15.72C44.9438 15.72 45.2318 15.704 45.5518 15.672C45.8878 15.624 46.1998 15.544 46.4878 15.432C46.7758 15.32 47.0078 15.16 47.1838 14.952C47.3758 14.728 47.4638 14.44 47.4478 14.088C47.4318 13.736 47.3038 13.448 47.0638 13.224C46.8238 13 46.5118 12.824 46.1278 12.696C45.7598 12.552 45.3358 12.432 44.8558 12.336C44.3758 12.24 43.8878 12.136 43.3918 12.024C42.8798 11.912 42.3838 11.776 41.9038 11.616C41.4398 11.456 41.0158 11.24 40.6318 10.968C40.2638 10.696 39.9678 10.352 39.7438 9.93601C39.5198 9.50401 39.4078 8.97601 39.4078 8.35201C39.4078 7.68001 39.5678 7.12001 39.8878 6.67201C40.2238 6.20801 40.6398 5.84001 41.1358 5.56801C41.6478 5.28001 42.2078 5.08001 42.8158 4.96801C43.4398 4.85601 44.0318 4.80001 44.5918 4.80001C45.2318 4.80001 45.8398 4.87201 46.4158 5.01601C47.0078 5.14401 47.5358 5.36001 47.9998 5.66401C48.4798 5.96801 48.8718 6.36801 49.1758 6.86401C49.4958 7.34401 49.6958 7.92801 49.7758 8.61601H46.9198C46.7918 7.96001 46.4878 7.52001 46.0078 7.29601C45.5438 7.07201 45.0078 6.96001 44.3998 6.96001C44.2078 6.96001 43.9758 6.97601 43.7038 7.00801C43.4478 7.04001 43.1998 7.10401 42.9598 7.20001C42.7358 7.28001 42.5438 7.40801 42.3838 7.58401C42.2238 7.74401 42.1438 7.96001 42.1438 8.23201C42.1438 8.56801 42.2558 8.84001 42.4798 9.04801C42.7198 9.25601 43.0238 9.43201 43.3918 9.57601C43.7758 9.70401 44.2078 9.81601 44.6878 9.91201C45.1678 10.008 45.6638 10.112 46.1758 10.224C46.6718 10.336 47.1598 10.472 47.6398 10.632C48.1198 10.792 48.5438 11.008 48.9118 11.28C49.2958 11.552 49.5998 11.896 49.8238 12.312C50.0638 12.728 50.1838 13.24 50.1838 13.848C50.1838 14.584 50.0158 15.208 49.6798 15.72C49.3438 16.232 48.9038 16.648 48.3598 16.968C47.8318 17.288 47.2398 17.52 46.5838 17.664C45.9278 17.808 45.2798 17.88 44.6398 17.88C43.8558 17.88 43.1278 17.792 42.4558 17.616C41.7998 17.44 41.2238 17.176 40.7278 16.824C40.2478 16.456 39.8638 16.008 39.5758 15.48C39.3038 14.936 39.1598 14.296 39.1438 13.56H41.8798ZM50.7731 5.13601H52.8371V1.41601H55.5731V5.13601H58.0451V7.17601H55.5731V13.8C55.5731 14.088 55.5811 14.336 55.5971 14.544C55.6291 14.752 55.6851 14.928 55.7651 15.072C55.8611 15.216 55.9971 15.328 56.1731 15.408C56.3491 15.472 56.5891 15.504 56.8931 15.504C57.0851 15.504 57.2771 15.504 57.4691 15.504C57.6611 15.488 57.8531 15.456 58.0451 15.408V17.52C57.7411 17.552 57.4451 17.584 57.1571 17.616C56.8691 17.648 56.5731 17.664 56.2691 17.664C55.5491 17.664 54.9651 17.6 54.5171 17.472C54.0851 17.328 53.7411 17.128 53.4851 16.872C53.2451 16.6 53.0771 16.264 52.9811 15.864C52.9011 15.464 52.8531 15.008 52.8371 14.496V7.17601H50.7731V5.13601ZM70.1653 14.784C70.1653 15.12 70.2053 15.36 70.2853 15.504C70.3813 15.648 70.5573 15.72 70.8133 15.72C70.8933 15.72 70.9893 15.72 71.1013 15.72C71.2133 15.72 71.3413 15.704 71.4853 15.672V17.568C71.3893 17.6 71.2613 17.632 71.1013 17.664C70.9573 17.712 70.8053 17.752 70.6453 17.784C70.4853 17.816 70.3253 17.84 70.1653 17.856C70.0053 17.872 69.8693 17.88 69.7573 17.88C69.1973 17.88 68.7333 17.768 68.3653 17.544C67.9973 17.32 67.7573 16.928 67.6453 16.368C67.1013 16.896 66.4293 17.28 65.6293 17.52C64.8453 17.76 64.0853 17.88 63.3493 17.88C62.7893 17.88 62.2533 17.8 61.7413 17.64C61.2293 17.496 60.7733 17.28 60.3733 16.992C59.9893 16.688 59.6773 16.312 59.4373 15.864C59.2133 15.4 59.1013 14.864 59.1013 14.256C59.1013 13.488 59.2373 12.864 59.5093 12.384C59.7973 11.904 60.1653 11.528 60.6133 11.256C61.0773 10.984 61.5893 10.792 62.1493 10.68C62.7253 10.552 63.3013 10.456 63.8773 10.392C64.3733 10.296 64.8453 10.232 65.2933 10.2C65.7413 10.152 66.1333 10.08 66.4693 9.98401C66.8213 9.88801 67.0933 9.74401 67.2853 9.55201C67.4933 9.34401 67.5973 9.04001 67.5973 8.64001C67.5973 8.28801 67.5093 8.00001 67.3333 7.77601C67.1733 7.55201 66.9653 7.38401 66.7093 7.27201C66.4693 7.14401 66.1973 7.06401 65.8933 7.03201C65.5893 6.98401 65.3013 6.96001 65.0293 6.96001C64.2613 6.96001 63.6293 7.12001 63.1333 7.44001C62.6373 7.76001 62.3573 8.25601 62.2933 8.92801H59.5573C59.6053 8.12801 59.7973 7.46401 60.1333 6.93601C60.4693 6.40801 60.8933 5.98401 61.4053 5.66401C61.9333 5.34401 62.5253 5.12001 63.1813 4.99201C63.8373 4.86401 64.5093 4.80001 65.1973 4.80001C65.8053 4.80001 66.4053 4.86401 66.9973 4.99201C67.5893 5.12001 68.1173 5.32801 68.5813 5.61601C69.0613 5.90401 69.4453 6.28001 69.7333 6.74401C70.0213 7.19201 70.1653 7.74401 70.1653 8.40001V14.784ZM67.4293 11.328C67.0133 11.6 66.5013 11.768 65.8933 11.832C65.2853 11.88 64.6773 11.96 64.0693 12.072C63.7813 12.12 63.5013 12.192 63.2293 12.288C62.9573 12.368 62.7173 12.488 62.5093 12.648C62.3013 12.792 62.1333 12.992 62.0053 13.248C61.8933 13.488 61.8373 13.784 61.8373 14.136C61.8373 14.44 61.9253 14.696 62.1013 14.904C62.2773 15.112 62.4853 15.28 62.7253 15.408C62.9813 15.52 63.2533 15.6 63.5413 15.648C63.8453 15.696 64.1173 15.72 64.3573 15.72C64.6613 15.72 64.9893 15.68 65.3413 15.6C65.6933 15.52 66.0213 15.384 66.3253 15.192C66.6453 15 66.9093 14.76 67.1173 14.472C67.3253 14.168 67.4293 13.8 67.4293 13.368V11.328ZM81.2453 9.28801C81.1333 8.52001 80.8213 7.94401 80.3093 7.56001C79.8133 7.16001 79.1813 6.96001 78.4133 6.96001C78.0613 6.96001 77.6853 7.02401 77.2853 7.15201C76.8853 7.26401 76.5173 7.48801 76.1813 7.82401C75.8453 8.14401 75.5653 8.60001 75.3413 9.19201C75.1173 9.76801 75.0053 10.528 75.0053 11.472C75.0053 11.984 75.0613 12.496 75.1733 13.008C75.3013 13.52 75.4933 13.976 75.7493 14.376C76.0213 14.776 76.3653 15.104 76.7813 15.36C77.1973 15.6 77.7013 15.72 78.2933 15.72C79.0933 15.72 79.7493 15.472 80.2613 14.976C80.7893 14.48 81.1173 13.784 81.2453 12.888H83.9813C83.7253 14.504 83.1093 15.744 82.1333 16.608C81.1733 17.456 79.8933 17.88 78.2933 17.88C77.3173 17.88 76.4533 17.72 75.7013 17.4C74.9653 17.064 74.3413 16.616 73.8293 16.056C73.3173 15.48 72.9253 14.8 72.6533 14.016C72.3973 13.232 72.2693 12.384 72.2693 11.472C72.2693 10.544 72.3973 9.67201 72.6533 8.85601C72.9093 8.04001 73.2933 7.33601 73.8053 6.74401C74.3173 6.13601 74.9493 5.66401 75.7013 5.32801C76.4693 4.97601 77.3653 4.80001 78.3893 4.80001C79.1093 4.80001 79.7893 4.89601 80.4293 5.08801C81.0853 5.26401 81.6613 5.53601 82.1573 5.90401C82.6693 6.27201 83.0853 6.73601 83.4053 7.29601C83.7253 7.85601 83.9173 8.52001 83.9813 9.28801H81.2453ZM86.0372 0.408005H88.7732V10.152L93.7172 5.13601H97.0772L92.3252 9.69601L97.5332 17.544H94.1972L90.4052 11.52L88.7732 13.104V17.544H86.0372V0.408005Z" fill="#0A0A0A"/>
</svg>
